# Blender v2.79 (sub 0) OBJ File: ''
# www.blender.org
o table
v -3.394543 0.005591 -3.053513
v -3.394543 2.087773 -3.053513
v -2.966708 2.087773 -3.053513
v -2.966708 0.005591 -3.053513
v -2.966708 0.005591 -2.708241
v -3.394543 0.005591 -2.708241
v -3.394543 2.087773 -2.708240
v -2.966708 2.087773 -2.708240
v -3.394543 0.005591 1.470211
v -3.394543 2.087773 1.470211
v -2.966708 2.087773 1.470211
v -2.966708 0.005591 1.470211
v -2.966708 0.005591 1.815484
v -3.394543 0.005591 1.815484
v -3.394543 2.087773 1.815484
v -2.966708 2.087773 1.815484
v 2.983614 0.005591 1.470211
v 2.983614 2.087773 1.470211
v 3.411449 2.087773 1.470211
v 3.411449 0.005591 1.470211
v 3.411449 0.005591 1.815484
v 2.983614 0.005591 1.815484
v 2.983614 2.087773 1.815484
v 3.411449 2.087773 1.815484
v 2.983614 0.005591 -3.053513
v 2.983614 2.087773 -3.053513
v 3.411449 2.087773 -3.053513
v 3.411449 0.005591 -3.053513
v 3.411449 0.005591 -2.708241
v 2.983614 0.005591 -2.708241
v 2.983614 2.087773 -2.708240
v 3.411449 2.087773 -2.708240
v -3.534315 2.079912 -3.186544
v -3.534315 2.407252 -3.186544
v 3.534315 2.407252 -3.186544
v 3.534315 2.079912 -3.186544
v 3.534315 2.079912 1.955969
v -3.534315 2.079912 1.955969
v -3.534315 2.407252 1.955969
v 3.534315 2.407252 1.955969
vt 0.017506 0.912836
vt 0.073020 0.606902
vt 0.017506 0.606902
vt 0.077475 0.940005
vt 0.014613 0.990736
vt 0.014613 0.940005
vt 0.017506 0.606902
vt 0.073020 0.912836
vt 0.073020 0.606902
vt 0.073020 0.912836
vt 0.017506 0.606902
vt 0.073020 0.606902
vt 0.017506 0.912836
vt 0.017506 0.912836
vt 0.073020 0.606902
vt 0.017506 0.606902
vt 0.077475 0.940005
vt 0.014613 0.990736
vt 0.014613 0.940005
vt 0.017506 0.606902
vt 0.073020 0.912836
vt 0.073020 0.606902
vt 0.073020 0.912836
vt 0.017506 0.606902
vt 0.073020 0.606902
vt 0.017506 0.912836
vt 0.017506 0.912836
vt 0.073020 0.606902
vt 0.017506 0.606902
vt 0.077475 0.940005
vt 0.014613 0.990736
vt 0.014613 0.940005
vt 0.017506 0.606902
vt 0.073020 0.912836
vt 0.073020 0.606902
vt 0.073020 0.912836
vt 0.017506 0.606902
vt 0.073020 0.606902
vt 0.017506 0.912836
vt 0.017506 0.912836
vt 0.073020 0.606902
vt 0.017506 0.606902
vt 0.077475 0.940005
vt 0.014613 0.990736
vt 0.014613 0.940005
vt 0.017506 0.606902
vt 0.073020 0.912836
vt 0.073020 0.606902
vt 0.073020 0.912836
vt 0.017506 0.606902
vt 0.073020 0.606902
vt 0.017506 0.912836
vt 0.975123 0.886688
vt 0.935557 0.032296
vt 0.935557 0.886688
vt 0.883650 0.041097
vt 0.262069 0.895489
vt 0.883650 0.895489
vt 0.253276 0.936968
vt 0.874857 0.976534
vt 0.874857 0.936968
vt 0.874857 0.976534
vt 0.253276 0.936968
vt 0.874857 0.936968
vt 0.262069 0.895489
vt 0.883650 0.041097
vt 0.883650 0.895489
vt 0.935557 0.032296
vt 0.975123 0.886688
vt 0.935557 0.886688
vt 0.077475 0.990736
vt 0.017506 0.912836
vt 0.073020 0.912836
vt 0.077475 0.990736
vt 0.017506 0.912836
vt 0.073020 0.912836
vt 0.077475 0.990736
vt 0.017506 0.912836
vt 0.073020 0.912836
vt 0.077475 0.990736
vt 0.017506 0.912836
vt 0.073020 0.912836
vt 0.975123 0.032296
vt 0.262069 0.041097
vt 0.253276 0.976534
vt 0.253276 0.976534
vt 0.262069 0.041097
vt 0.975123 0.032296
vn 0.0000 0.0000 -1.0000
vn 0.0000 -1.0000 -0.0000
vn -1.0000 0.0000 0.0000
vn 1.0000 0.0000 0.0000
vn 0.0000 -0.0000 1.0000
vn 0.0000 1.0000 0.0000
s 1
f 2/1/1 4/2/1 1/3/1
f 4/4/2 6/5/2 1/6/2
f 6/7/3 2/8/3 1/9/3
f 3/10/4 5/11/4 4/2/4
f 5/12/5 7/13/5 6/7/5
f 10/14/1 12/15/1 9/16/1
f 12/17/2 14/18/2 9/19/2
f 14/20/3 10/21/3 9/22/3
f 11/23/4 13/24/4 12/15/4
f 13/25/5 15/26/5 14/20/5
f 18/27/1 20/28/1 17/29/1
f 20/30/2 22/31/2 17/32/2
f 22/33/3 18/34/3 17/35/3
f 19/36/4 21/37/4 20/28/4
f 21/38/5 23/39/5 22/33/5
f 26/40/1 28/41/1 25/42/1
f 28/43/2 30/44/2 25/45/2
f 30/46/3 26/47/3 25/48/3
f 27/49/4 29/50/4 28/41/4
f 29/51/5 31/52/5 30/46/5
f 34/53/1 36/54/1 33/55/1
f 36/56/2 38/57/2 33/58/2
f 38/59/3 34/60/3 33/61/3
f 35/62/4 37/63/4 36/64/4
f 39/65/6 35/66/6 34/67/6
f 37/68/5 39/69/5 38/70/5
f 2/1/1 3/10/1 4/2/1
f 4/4/2 5/71/2 6/5/2
f 6/7/3 7/13/3 2/8/3
f 3/10/4 8/72/4 5/11/4
f 5/12/5 8/73/5 7/13/5
f 10/14/1 11/23/1 12/15/1
f 12/17/2 13/74/2 14/18/2
f 14/20/3 15/26/3 10/21/3
f 11/23/4 16/75/4 13/24/4
f 13/25/5 16/76/5 15/26/5
f 18/27/1 19/36/1 20/28/1
f 20/30/2 21/77/2 22/31/2
f 22/33/3 23/39/3 18/34/3
f 19/36/4 24/78/4 21/37/4
f 21/38/5 24/79/5 23/39/5
f 26/40/1 27/49/1 28/41/1
f 28/43/2 29/80/2 30/44/2
f 30/46/3 31/52/3 26/47/3
f 27/49/4 32/81/4 29/50/4
f 29/51/5 32/82/5 31/52/5
f 34/53/1 35/83/1 36/54/1
f 36/56/2 37/84/2 38/57/2
f 38/59/3 39/85/3 34/60/3
f 35/62/4 40/86/4 37/63/4
f 39/65/6 40/87/6 35/66/6
f 37/68/5 40/88/5 39/69/5
